<svg width="240" height="240" viewBox="0 0 240 240" fill="none" xmlns="http://www.w3.org/2000/svg">
  <defs>
    <linearGradient id="grad-bg" x1="40" y1="20" x2="200" y2="220" gradientUnits="userSpaceOnUse">
      <stop offset="0" stop-color="#091431"/>
      <stop offset="1" stop-color="#040916"/>
    </linearGradient>
    <radialGradient id="orb" cx="0" cy="0" r="1" gradientUnits="userSpaceOnUse" gradientTransform="translate(120 78) rotate(90) scale(96)">
      <stop offset="0" stop-color="#00F0FF" stop-opacity="0.8"/>
      <stop offset="1" stop-color="#00F0FF" stop-opacity="0"/>
    </radialGradient>
    <filter id="glow" x="-50" y="-50" width="340" height="340" filterUnits="userSpaceOnUse" color-interpolation-filters="sRGB">
      <feGaussianBlur stdDeviation="14" result="blur"/>
      <feBlend in="SourceGraphic" in2="blur" mode="screen"/>
    </filter>
    <linearGradient id="grad-line" x1="40" y1="200" x2="200" y2="200" gradientUnits="userSpaceOnUse">
      <stop offset="0" stop-color="#00F0FF"/>
      <stop offset="1" stop-color="#7A5CFF"/>
    </linearGradient>
  </defs>
  <rect width="240" height="240" rx="36" fill="url(#grad-bg)"/>
  <rect x="22" y="22" width="196" height="196" rx="32" stroke="rgba(0,240,255,0.24)" stroke-width="1.5"/>
  <circle cx="120" cy="92" r="96" fill="url(#orb)"/>
  <g filter="url(#glow)">
    <path d="M68 160C68 132 92 108 120 108C148 108 172 132 172 160" stroke="url(#grad-line)" stroke-width="6" stroke-linecap="round"/>
  </g>
  <path d="M86 158L112 186L156 130" stroke="url(#grad-line)" stroke-width="8" stroke-linecap="round" stroke-linejoin="round"/>
  <circle cx="156" cy="130" r="12" fill="#101B38" stroke="url(#grad-line)" stroke-width="4"/>
  <circle cx="112" cy="186" r="12" fill="#101B38" stroke="url(#grad-line)" stroke-width="4"/>
  <circle cx="86" cy="158" r="10" fill="#101B38" stroke="url(#grad-line)" stroke-width="3"/>
  <path d="M62 98H178" stroke="rgba(0,240,255,0.25)" stroke-width="2" stroke-linecap="round"/>
  <path d="M62 118H178" stroke="rgba(0,240,255,0.18)" stroke-width="2" stroke-linecap="round"/>
  <path d="M62 138H178" stroke="rgba(0,240,255,0.12)" stroke-width="2" stroke-linecap="round"/>
</svg>
